<?xml version="1.0" encoding="UTF-8" standalone="no"?><svg xmlns="http://www.w3.org/2000/svg" xmlns:xlink="http://www.w3.org/1999/xlink" contentScriptType="application/ecmascript" contentStyleType="text/css" height="1039px" preserveAspectRatio="none" style="width:1378px;height:1039px;" version="1.1" viewBox="0 0 1378 1039" width="1378px" zoomAndPan="magnify"><defs><filter height="300%" id="fvv97t8d939ek" width="300%" x="-1" y="-1"><feGaussianBlur result="blurOut" stdDeviation="2.0"/><feColorMatrix in="blurOut" result="blurOut2" type="matrix" values="0 0 0 0 0 0 0 0 0 0 0 0 0 0 0 0 0 0 .4 0"/><feOffset dx="4.0" dy="4.0" in="blurOut2" result="blurOut3"/><feBlend in="SourceGraphic" in2="blurOut3" mode="normal"/></filter></defs><g><!--class \VDB\Spider\Downloader\Downloader--><rect fill="#FEFECE" filter="url(#fvv97t8d939ek)" height="48" id="\VDB\Spider\Downloader\Downloader" style="stroke: #A80036; stroke-width: 1.5;" width="254" x="632.5" y="440"/><ellipse cx="647.5" cy="456" fill="#ADD1B2" rx="11" ry="11" style="stroke: #A80036; stroke-width: 1.0;"/><path d="M649.9688,462.1406 Q649.3906,462.4375 648.75,462.5859 Q648.1094,462.7344 647.4063,462.7344 Q644.9063,462.7344 643.5859,461.0859 Q642.2656,459.4375 642.2656,456.3125 Q642.2656,453.1875 643.5859,451.5313 Q644.9063,449.875 647.4063,449.875 Q648.1094,449.875 648.7578,450.0313 Q649.4063,450.1875 649.9688,450.4844 L649.9688,453.2031 Q649.3438,452.625 648.75,452.3516 Q648.1563,452.0781 647.5313,452.0781 Q646.1875,452.0781 645.5,453.1484 Q644.8125,454.2188 644.8125,456.3125 Q644.8125,458.4063 645.5,459.4766 Q646.1875,460.5469 647.5313,460.5469 Q648.1563,460.5469 648.75,460.2734 Q649.3438,460 649.9688,459.4219 L649.9688,462.1406 Z "/><text fill="#000000" font-family="sans-serif" font-size="12" lengthAdjust="spacingAndGlyphs" textLength="222" x="661.5" y="460.1543">\VDB\Spider\Downloader\Downloader</text><line style="stroke: #A80036; stroke-width: 1.5;" x1="633.5" x2="885.5" y1="472" y2="472"/><line style="stroke: #A80036; stroke-width: 1.5;" x1="633.5" x2="885.5" y1="480" y2="480"/><!--class \VDB\Spider\Downloader\DownloaderInterface--><rect fill="#FEFECE" filter="url(#fvv97t8d939ek)" height="48" id="\VDB\Spider\Downloader\DownloaderInterface" style="stroke: #A80036; stroke-width: 1.5;" width="308" x="613.5" y="332"/><ellipse cx="628.5" cy="348" fill="#B4A7E5" rx="11" ry="11" style="stroke: #A80036; stroke-width: 1.0;"/><path d="M624.9219,343.7656 L624.9219,341.6094 L632.3125,341.6094 L632.3125,343.7656 L629.8438,343.7656 L629.8438,351.8438 L632.3125,351.8438 L632.3125,354 L624.9219,354 L624.9219,351.8438 L627.3906,351.8438 L627.3906,343.7656 L624.9219,343.7656 Z "/><text fill="#000000" font-family="sans-serif" font-size="12" font-style="italic" lengthAdjust="spacingAndGlyphs" textLength="276" x="642.5" y="352.1543">\VDB\Spider\Downloader\DownloaderInterface</text><line style="stroke: #A80036; stroke-width: 1.5;" x1="614.5" x2="920.5" y1="364" y2="364"/><line style="stroke: #A80036; stroke-width: 1.5;" x1="614.5" x2="920.5" y1="372" y2="372"/><!--class \VDB\Spider\Spider--><rect fill="#FEFECE" filter="url(#fvv97t8d939ek)" height="48" id="\VDB\Spider\Spider" style="stroke: #A80036; stroke-width: 1.5;" width="147" x="694" y="224"/><ellipse cx="709" cy="240" fill="#ADD1B2" rx="11" ry="11" style="stroke: #A80036; stroke-width: 1.0;"/><path d="M711.4688,246.1406 Q710.8906,246.4375 710.25,246.5859 Q709.6094,246.7344 708.9063,246.7344 Q706.4063,246.7344 705.0859,245.0859 Q703.7656,243.4375 703.7656,240.3125 Q703.7656,237.1875 705.0859,235.5313 Q706.4063,233.875 708.9063,233.875 Q709.6094,233.875 710.2578,234.0313 Q710.9063,234.1875 711.4688,234.4844 L711.4688,237.2031 Q710.8438,236.625 710.25,236.3516 Q709.6563,236.0781 709.0313,236.0781 Q707.6875,236.0781 707,237.1484 Q706.3125,238.2188 706.3125,240.3125 Q706.3125,242.4063 707,243.4766 Q707.6875,244.5469 709.0313,244.5469 Q709.6563,244.5469 710.25,244.2734 Q710.8438,244 711.4688,243.4219 L711.4688,246.1406 Z "/><text fill="#000000" font-family="sans-serif" font-size="12" lengthAdjust="spacingAndGlyphs" textLength="115" x="723" y="244.1543">\VDB\Spider\Spider</text><line style="stroke: #A80036; stroke-width: 1.5;" x1="695" x2="840" y1="256" y2="256"/><line style="stroke: #A80036; stroke-width: 1.5;" x1="695" x2="840" y1="264" y2="264"/><!--class \VDB\Spider\Discoverer\DiscovererSet--><rect fill="#FEFECE" filter="url(#fvv97t8d939ek)" height="48" id="\VDB\Spider\Discoverer\DiscovererSet" style="stroke: #A80036; stroke-width: 1.5;" width="258" x="320.5" y="332"/><ellipse cx="335.5" cy="348" fill="#ADD1B2" rx="11" ry="11" style="stroke: #A80036; stroke-width: 1.0;"/><path d="M337.9688,354.1406 Q337.3906,354.4375 336.75,354.5859 Q336.1094,354.7344 335.4063,354.7344 Q332.9063,354.7344 331.5859,353.0859 Q330.2656,351.4375 330.2656,348.3125 Q330.2656,345.1875 331.5859,343.5313 Q332.9063,341.875 335.4063,341.875 Q336.1094,341.875 336.7578,342.0313 Q337.4063,342.1875 337.9688,342.4844 L337.9688,345.2031 Q337.3438,344.625 336.75,344.3516 Q336.1563,344.0781 335.5313,344.0781 Q334.1875,344.0781 333.5,345.1484 Q332.8125,346.2188 332.8125,348.3125 Q332.8125,350.4063 333.5,351.4766 Q334.1875,352.5469 335.5313,352.5469 Q336.1563,352.5469 336.75,352.2734 Q337.3438,352 337.9688,351.4219 L337.9688,354.1406 Z "/><text fill="#000000" font-family="sans-serif" font-size="12" lengthAdjust="spacingAndGlyphs" textLength="226" x="349.5" y="352.1543">\VDB\Spider\Discoverer\DiscovererSet</text><line style="stroke: #A80036; stroke-width: 1.5;" x1="321.5" x2="577.5" y1="364" y2="364"/><line style="stroke: #A80036; stroke-width: 1.5;" x1="321.5" x2="577.5" y1="372" y2="372"/><!--class \VDB\Spider\RequestHandler\RequestHandlerInterface--><rect fill="#FEFECE" filter="url(#fvv97t8d939ek)" height="48" id="\VDB\Spider\RequestHandler\RequestHandlerInterface" style="stroke: #A80036; stroke-width: 1.5;" width="358" x="957.5" y="332"/><ellipse cx="972.5" cy="348" fill="#ADD1B2" rx="11" ry="11" style="stroke: #A80036; stroke-width: 1.0;"/><path d="M974.9688,354.1406 Q974.3906,354.4375 973.75,354.5859 Q973.1094,354.7344 972.4063,354.7344 Q969.9063,354.7344 968.5859,353.0859 Q967.2656,351.4375 967.2656,348.3125 Q967.2656,345.1875 968.5859,343.5313 Q969.9063,341.875 972.4063,341.875 Q973.1094,341.875 973.7578,342.0313 Q974.4063,342.1875 974.9688,342.4844 L974.9688,345.2031 Q974.3438,344.625 973.75,344.3516 Q973.1563,344.0781 972.5313,344.0781 Q971.1875,344.0781 970.5,345.1484 Q969.8125,346.2188 969.8125,348.3125 Q969.8125,350.4063 970.5,351.4766 Q971.1875,352.5469 972.5313,352.5469 Q973.1563,352.5469 973.75,352.2734 Q974.3438,352 974.9688,351.4219 L974.9688,354.1406 Z "/><text fill="#000000" font-family="sans-serif" font-size="12" lengthAdjust="spacingAndGlyphs" textLength="326" x="986.5" y="352.1543">\VDB\Spider\RequestHandler\RequestHandlerInterface</text><line style="stroke: #A80036; stroke-width: 1.5;" x1="958.5" x2="1314.5" y1="364" y2="364"/><line style="stroke: #A80036; stroke-width: 1.5;" x1="958.5" x2="1314.5" y1="372" y2="372"/><!--class \VDB\Spider\PersistenceHandler\PersistenceHandlerInterface--><rect fill="#FEFECE" filter="url(#fvv97t8d939ek)" height="48" id="\VDB\Spider\PersistenceHandler\PersistenceHandlerInterface" style="stroke: #A80036; stroke-width: 1.5;" width="396" x="561.5" y="548"/><ellipse cx="576.5" cy="564" fill="#B4A7E5" rx="11" ry="11" style="stroke: #A80036; stroke-width: 1.0;"/><path d="M572.9219,559.7656 L572.9219,557.6094 L580.3125,557.6094 L580.3125,559.7656 L577.8438,559.7656 L577.8438,567.8438 L580.3125,567.8438 L580.3125,570 L572.9219,570 L572.9219,567.8438 L575.3906,567.8438 L575.3906,559.7656 L572.9219,559.7656 Z "/><text fill="#000000" font-family="sans-serif" font-size="12" font-style="italic" lengthAdjust="spacingAndGlyphs" textLength="364" x="590.5" y="568.1543">\VDB\Spider\PersistenceHandler\PersistenceHandlerInterface</text><line style="stroke: #A80036; stroke-width: 1.5;" x1="562.5" x2="956.5" y1="580" y2="580"/><line style="stroke: #A80036; stroke-width: 1.5;" x1="562.5" x2="956.5" y1="588" y2="588"/><!--class \VDB\Spider\Filter\PreFetchFilterInterface--><rect fill="#FEFECE" filter="url(#fvv97t8d939ek)" height="48" id="\VDB\Spider\Filter\PreFetchFilterInterface" style="stroke: #A80036; stroke-width: 1.5;" width="279" x="6" y="332"/><ellipse cx="21" cy="348" fill="#B4A7E5" rx="11" ry="11" style="stroke: #A80036; stroke-width: 1.0;"/><path d="M17.4219,343.7656 L17.4219,341.6094 L24.8125,341.6094 L24.8125,343.7656 L22.3438,343.7656 L22.3438,351.8438 L24.8125,351.8438 L24.8125,354 L17.4219,354 L17.4219,351.8438 L19.8906,351.8438 L19.8906,343.7656 L17.4219,343.7656 Z "/><text fill="#000000" font-family="sans-serif" font-size="12" font-style="italic" lengthAdjust="spacingAndGlyphs" textLength="247" x="35" y="352.1543">\VDB\Spider\Filter\PreFetchFilterInterface</text><line style="stroke: #A80036; stroke-width: 1.5;" x1="7" x2="284" y1="364" y2="364"/><line style="stroke: #A80036; stroke-width: 1.5;" x1="7" x2="284" y1="372" y2="372"/><!--class App\Parser\Spider\Spider--><rect fill="#FEFECE" filter="url(#fvv97t8d939ek)" height="48" id="App\Parser\Spider\Spider" style="stroke: #A80036; stroke-width: 1.5;" width="183" x="676" y="116"/><ellipse cx="691" cy="132" fill="#ADD1B2" rx="11" ry="11" style="stroke: #A80036; stroke-width: 1.0;"/><path d="M693.4688,138.1406 Q692.8906,138.4375 692.25,138.5859 Q691.6094,138.7344 690.9063,138.7344 Q688.4063,138.7344 687.0859,137.0859 Q685.7656,135.4375 685.7656,132.3125 Q685.7656,129.1875 687.0859,127.5313 Q688.4063,125.875 690.9063,125.875 Q691.6094,125.875 692.2578,126.0313 Q692.9063,126.1875 693.4688,126.4844 L693.4688,129.2031 Q692.8438,128.625 692.25,128.3516 Q691.6563,128.0781 691.0313,128.0781 Q689.6875,128.0781 689,129.1484 Q688.3125,130.2188 688.3125,132.3125 Q688.3125,134.4063 689,135.4766 Q689.6875,136.5469 691.0313,136.5469 Q691.6563,136.5469 692.25,136.2734 Q692.8438,136 693.4688,135.4219 L693.4688,138.1406 Z "/><text fill="#000000" font-family="sans-serif" font-size="12" lengthAdjust="spacingAndGlyphs" textLength="151" x="705" y="136.1543">App\Parser\Spider\Spider</text><line style="stroke: #A80036; stroke-width: 1.5;" x1="677" x2="858" y1="148" y2="148"/><line style="stroke: #A80036; stroke-width: 1.5;" x1="677" x2="858" y1="156" y2="156"/><!--class \App\Parser\Spider\SpiderInterface--><rect fill="#FEFECE" filter="url(#fvv97t8d939ek)" height="48" id="\App\Parser\Spider\SpiderInterface" style="stroke: #A80036; stroke-width: 1.5;" width="241" x="528" y="8"/><ellipse cx="543" cy="24" fill="#B4A7E5" rx="11" ry="11" style="stroke: #A80036; stroke-width: 1.0;"/><path d="M539.4219,19.7656 L539.4219,17.6094 L546.8125,17.6094 L546.8125,19.7656 L544.3438,19.7656 L544.3438,27.8438 L546.8125,27.8438 L546.8125,30 L539.4219,30 L539.4219,27.8438 L541.8906,27.8438 L541.8906,19.7656 L539.4219,19.7656 Z "/><text fill="#000000" font-family="sans-serif" font-size="12" font-style="italic" lengthAdjust="spacingAndGlyphs" textLength="209" x="557" y="28.1543">\App\Parser\Spider\SpiderInterface</text><line style="stroke: #A80036; stroke-width: 1.5;" x1="529" x2="768" y1="40" y2="40"/><line style="stroke: #A80036; stroke-width: 1.5;" x1="529" x2="768" y1="48" y2="48"/><!--class \App\Parser\Spider\Attributes\DetailPageParser--><rect fill="#FEFECE" filter="url(#fvv97t8d939ek)" height="48" id="\App\Parser\Spider\Attributes\DetailPageParser" style="stroke: #A80036; stroke-width: 1.5;" width="312" x="127.5" y="872"/><ellipse cx="142.5" cy="888" fill="#ADD1B2" rx="11" ry="11" style="stroke: #A80036; stroke-width: 1.0;"/><path d="M144.9688,894.1406 Q144.3906,894.4375 143.75,894.5859 Q143.1094,894.7344 142.4063,894.7344 Q139.9063,894.7344 138.5859,893.0859 Q137.2656,891.4375 137.2656,888.3125 Q137.2656,885.1875 138.5859,883.5313 Q139.9063,881.875 142.4063,881.875 Q143.1094,881.875 143.7578,882.0313 Q144.4063,882.1875 144.9688,882.4844 L144.9688,885.2031 Q144.3438,884.625 143.75,884.3516 Q143.1563,884.0781 142.5313,884.0781 Q141.1875,884.0781 140.5,885.1484 Q139.8125,886.2188 139.8125,888.3125 Q139.8125,890.4063 140.5,891.4766 Q141.1875,892.5469 142.5313,892.5469 Q143.1563,892.5469 143.75,892.2734 Q144.3438,892 144.9688,891.4219 L144.9688,894.1406 Z "/><text fill="#000000" font-family="sans-serif" font-size="12" lengthAdjust="spacingAndGlyphs" textLength="280" x="156.5" y="892.1543">\App\Parser\Spider\Attributes\DetailPageParser</text><line style="stroke: #A80036; stroke-width: 1.5;" x1="128.5" x2="438.5" y1="904" y2="904"/><line style="stroke: #A80036; stroke-width: 1.5;" x1="128.5" x2="438.5" y1="912" y2="912"/><!--class \App\Parser\Spider\Attributes\AttributeParserInterface--><rect fill="#FEFECE" filter="url(#fvv97t8d939ek)" height="48" id="\App\Parser\Spider\Attributes\AttributeParserInterface" style="stroke: #A80036; stroke-width: 1.5;" width="357" x="404" y="764"/><ellipse cx="419" cy="780" fill="#B4A7E5" rx="11" ry="11" style="stroke: #A80036; stroke-width: 1.0;"/><path d="M415.4219,775.7656 L415.4219,773.6094 L422.8125,773.6094 L422.8125,775.7656 L420.3438,775.7656 L420.3438,783.8438 L422.8125,783.8438 L422.8125,786 L415.4219,786 L415.4219,783.8438 L417.8906,783.8438 L417.8906,775.7656 L415.4219,775.7656 Z "/><text fill="#000000" font-family="sans-serif" font-size="12" font-style="italic" lengthAdjust="spacingAndGlyphs" textLength="325" x="433" y="784.1543">\App\Parser\Spider\Attributes\AttributeParserInterface</text><line style="stroke: #A80036; stroke-width: 1.5;" x1="405" x2="760" y1="796" y2="796"/><line style="stroke: #A80036; stroke-width: 1.5;" x1="405" x2="760" y1="804" y2="804"/><!--class \App\Parser\Spider\Attributes\TableParser--><rect fill="#FEFECE" filter="url(#fvv97t8d939ek)" height="48" id="\App\Parser\Spider\Attributes\TableParser" style="stroke: #A80036; stroke-width: 1.5;" width="281" x="475" y="872"/><ellipse cx="490" cy="888" fill="#ADD1B2" rx="11" ry="11" style="stroke: #A80036; stroke-width: 1.0;"/><path d="M492.4688,894.1406 Q491.8906,894.4375 491.25,894.5859 Q490.6094,894.7344 489.9063,894.7344 Q487.4063,894.7344 486.0859,893.0859 Q484.7656,891.4375 484.7656,888.3125 Q484.7656,885.1875 486.0859,883.5313 Q487.4063,881.875 489.9063,881.875 Q490.6094,881.875 491.2578,882.0313 Q491.9063,882.1875 492.4688,882.4844 L492.4688,885.2031 Q491.8438,884.625 491.25,884.3516 Q490.6563,884.0781 490.0313,884.0781 Q488.6875,884.0781 488,885.1484 Q487.3125,886.2188 487.3125,888.3125 Q487.3125,890.4063 488,891.4766 Q488.6875,892.5469 490.0313,892.5469 Q490.6563,892.5469 491.25,892.2734 Q491.8438,892 492.4688,891.4219 L492.4688,894.1406 Z "/><text fill="#000000" font-family="sans-serif" font-size="12" lengthAdjust="spacingAndGlyphs" textLength="249" x="504" y="892.1543">\App\Parser\Spider\Attributes\TableParser</text><line style="stroke: #A80036; stroke-width: 1.5;" x1="476" x2="755" y1="904" y2="904"/><line style="stroke: #A80036; stroke-width: 1.5;" x1="476" x2="755" y1="912" y2="912"/><!--class \App\Parser\Spider\PersistenceHandler\DBPersistenceHandler--><rect fill="#FEFECE" filter="url(#fvv97t8d939ek)" height="48" id="\App\Parser\Spider\PersistenceHandler\DBPersistenceHandler" style="stroke: #A80036; stroke-width: 1.5;" width="399" x="560" y="656"/><ellipse cx="575" cy="672" fill="#ADD1B2" rx="11" ry="11" style="stroke: #A80036; stroke-width: 1.0;"/><path d="M577.4688,678.1406 Q576.8906,678.4375 576.25,678.5859 Q575.6094,678.7344 574.9063,678.7344 Q572.4063,678.7344 571.0859,677.0859 Q569.7656,675.4375 569.7656,672.3125 Q569.7656,669.1875 571.0859,667.5313 Q572.4063,665.875 574.9063,665.875 Q575.6094,665.875 576.2578,666.0313 Q576.9063,666.1875 577.4688,666.4844 L577.4688,669.2031 Q576.8438,668.625 576.25,668.3516 Q575.6563,668.0781 575.0313,668.0781 Q573.6875,668.0781 573,669.1484 Q572.3125,670.2188 572.3125,672.3125 Q572.3125,674.4063 573,675.4766 Q573.6875,676.5469 575.0313,676.5469 Q575.6563,676.5469 576.25,676.2734 Q576.8438,676 577.4688,675.4219 L577.4688,678.1406 Z "/><text fill="#000000" font-family="sans-serif" font-size="12" lengthAdjust="spacingAndGlyphs" textLength="367" x="589" y="676.1543">\App\Parser\Spider\PersistenceHandler\DBPersistenceHandler</text><line style="stroke: #A80036; stroke-width: 1.5;" x1="561" x2="958" y1="688" y2="688"/><line style="stroke: #A80036; stroke-width: 1.5;" x1="561" x2="958" y1="696" y2="696"/><!--class \App\Parser\Spider\Filter\Prefetch\UriFilter--><rect fill="#FEFECE" filter="url(#fvv97t8d939ek)" height="48" id="\App\Parser\Spider\Filter\Prefetch\UriFilter" style="stroke: #A80036; stroke-width: 1.5;" width="283" x="163" y="440"/><ellipse cx="178" cy="456" fill="#ADD1B2" rx="11" ry="11" style="stroke: #A80036; stroke-width: 1.0;"/><path d="M180.4688,462.1406 Q179.8906,462.4375 179.25,462.5859 Q178.6094,462.7344 177.9063,462.7344 Q175.4063,462.7344 174.0859,461.0859 Q172.7656,459.4375 172.7656,456.3125 Q172.7656,453.1875 174.0859,451.5313 Q175.4063,449.875 177.9063,449.875 Q178.6094,449.875 179.2578,450.0313 Q179.9063,450.1875 180.4688,450.4844 L180.4688,453.2031 Q179.8438,452.625 179.25,452.3516 Q178.6563,452.0781 178.0313,452.0781 Q176.6875,452.0781 176,453.1484 Q175.3125,454.2188 175.3125,456.3125 Q175.3125,458.4063 176,459.4766 Q176.6875,460.5469 178.0313,460.5469 Q178.6563,460.5469 179.25,460.2734 Q179.8438,460 180.4688,459.4219 L180.4688,462.1406 Z "/><text fill="#000000" font-family="sans-serif" font-size="12" lengthAdjust="spacingAndGlyphs" textLength="251" x="192" y="460.1543">\App\Parser\Spider\Filter\Prefetch\UriFilter</text><line style="stroke: #A80036; stroke-width: 1.5;" x1="164" x2="445" y1="472" y2="472"/><line style="stroke: #A80036; stroke-width: 1.5;" x1="164" x2="445" y1="480" y2="480"/><!--class \App\Parser\Spider\RequestHandler\GuzzleRequestWIthProxyHandler--><rect fill="#FEFECE" filter="url(#fvv97t8d939ek)" height="48" id="\App\Parser\Spider\RequestHandler\GuzzleRequestWIthProxyHandler" style="stroke: #A80036; stroke-width: 1.5;" width="445" x="922" y="440"/><ellipse cx="937" cy="456" fill="#ADD1B2" rx="11" ry="11" style="stroke: #A80036; stroke-width: 1.0;"/><path d="M939.4688,462.1406 Q938.8906,462.4375 938.25,462.5859 Q937.6094,462.7344 936.9063,462.7344 Q934.4063,462.7344 933.0859,461.0859 Q931.7656,459.4375 931.7656,456.3125 Q931.7656,453.1875 933.0859,451.5313 Q934.4063,449.875 936.9063,449.875 Q937.6094,449.875 938.2578,450.0313 Q938.9063,450.1875 939.4688,450.4844 L939.4688,453.2031 Q938.8438,452.625 938.25,452.3516 Q937.6563,452.0781 937.0313,452.0781 Q935.6875,452.0781 935,453.1484 Q934.3125,454.2188 934.3125,456.3125 Q934.3125,458.4063 935,459.4766 Q935.6875,460.5469 937.0313,460.5469 Q937.6563,460.5469 938.25,460.2734 Q938.8438,460 939.4688,459.4219 L939.4688,462.1406 Z "/><text fill="#000000" font-family="sans-serif" font-size="12" lengthAdjust="spacingAndGlyphs" textLength="413" x="951" y="460.1543">\App\Parser\Spider\RequestHandler\GuzzleRequestWIthProxyHandler</text><line style="stroke: #A80036; stroke-width: 1.5;" x1="923" x2="1366" y1="472" y2="472"/><line style="stroke: #A80036; stroke-width: 1.5;" x1="923" x2="1366" y1="480" y2="480"/><!--class \App\Parser\Spider\Filter\UriFilter--><rect fill="#FEFECE" filter="url(#fvv97t8d939ek)" height="48" id="\App\Parser\Spider\Filter\UriFilter" style="stroke: #A80036; stroke-width: 1.5;" width="229" x="823" y="872"/><ellipse cx="838" cy="888" fill="#ADD1B2" rx="11" ry="11" style="stroke: #A80036; stroke-width: 1.0;"/><path d="M840.4688,894.1406 Q839.8906,894.4375 839.25,894.5859 Q838.6094,894.7344 837.9063,894.7344 Q835.4063,894.7344 834.0859,893.0859 Q832.7656,891.4375 832.7656,888.3125 Q832.7656,885.1875 834.0859,883.5313 Q835.4063,881.875 837.9063,881.875 Q838.6094,881.875 839.2578,882.0313 Q839.9063,882.1875 840.4688,882.4844 L840.4688,885.2031 Q839.8438,884.625 839.25,884.3516 Q838.6563,884.0781 838.0313,884.0781 Q836.6875,884.0781 836,885.1484 Q835.3125,886.2188 835.3125,888.3125 Q835.3125,890.4063 836,891.4766 Q836.6875,892.5469 838.0313,892.5469 Q838.6563,892.5469 839.25,892.2734 Q839.8438,892 840.4688,891.4219 L840.4688,894.1406 Z "/><text fill="#000000" font-family="sans-serif" font-size="12" lengthAdjust="spacingAndGlyphs" textLength="197" x="852" y="892.1543">\App\Parser\Spider\Filter\UriFilter</text><line style="stroke: #A80036; stroke-width: 1.5;" x1="824" x2="1051" y1="904" y2="904"/><line style="stroke: #A80036; stroke-width: 1.5;" x1="824" x2="1051" y1="912" y2="912"/><!--class \App\Parser\Spider\Filter\UriFilterInterface--><rect fill="#FEFECE" filter="url(#fvv97t8d939ek)" height="48" id="\App\Parser\Spider\Filter\UriFilterInterface" style="stroke: #A80036; stroke-width: 1.5;" width="283" x="796" y="764"/><ellipse cx="811" cy="780" fill="#B4A7E5" rx="11" ry="11" style="stroke: #A80036; stroke-width: 1.0;"/><path d="M807.4219,775.7656 L807.4219,773.6094 L814.8125,773.6094 L814.8125,775.7656 L812.3438,775.7656 L812.3438,783.8438 L814.8125,783.8438 L814.8125,786 L807.4219,786 L807.4219,783.8438 L809.8906,783.8438 L809.8906,775.7656 L807.4219,775.7656 Z "/><text fill="#000000" font-family="sans-serif" font-size="12" font-style="italic" lengthAdjust="spacingAndGlyphs" textLength="251" x="825" y="784.1543">\App\Parser\Spider\Filter\UriFilterInterface</text><line style="stroke: #A80036; stroke-width: 1.5;" x1="797" x2="1078" y1="796" y2="796"/><line style="stroke: #A80036; stroke-width: 1.5;" x1="797" x2="1078" y1="804" y2="804"/><!--class \App\Parser\CarDefiner--><rect fill="#FEFECE" filter="url(#fvv97t8d939ek)" height="48" id="\App\Parser\CarDefiner" style="stroke: #A80036; stroke-width: 1.5;" width="168" x="365.5" y="980"/><ellipse cx="380.5" cy="996" fill="#ADD1B2" rx="11" ry="11" style="stroke: #A80036; stroke-width: 1.0;"/><path d="M382.9688,1002.1406 Q382.3906,1002.4375 381.75,1002.5859 Q381.1094,1002.7344 380.4063,1002.7344 Q377.9063,1002.7344 376.5859,1001.0859 Q375.2656,999.4375 375.2656,996.3125 Q375.2656,993.1875 376.5859,991.5313 Q377.9063,989.875 380.4063,989.875 Q381.1094,989.875 381.7578,990.0313 Q382.4063,990.1875 382.9688,990.4844 L382.9688,993.2031 Q382.3438,992.625 381.75,992.3516 Q381.1563,992.0781 380.5313,992.0781 Q379.1875,992.0781 378.5,993.1484 Q377.8125,994.2188 377.8125,996.3125 Q377.8125,998.4063 378.5,999.4766 Q379.1875,1000.5469 380.5313,1000.5469 Q381.1563,1000.5469 381.75,1000.2734 Q382.3438,1000 382.9688,999.4219 L382.9688,1002.1406 Z "/><text fill="#000000" font-family="sans-serif" font-size="12" lengthAdjust="spacingAndGlyphs" textLength="136" x="394.5" y="1000.1543">\App\Parser\CarDefiner</text><line style="stroke: #A80036; stroke-width: 1.5;" x1="366.5" x2="532.5" y1="1012" y2="1012"/><line style="stroke: #A80036; stroke-width: 1.5;" x1="366.5" x2="532.5" y1="1020" y2="1020"/><!--class \App\Parser\Scheduler--><rect fill="#FEFECE" filter="url(#fvv97t8d939ek)" height="48" id="\App\Parser\Scheduler" style="stroke: #A80036; stroke-width: 1.5;" width="166" x="804.5" y="8"/><ellipse cx="819.5" cy="24" fill="#ADD1B2" rx="11" ry="11" style="stroke: #A80036; stroke-width: 1.0;"/><path d="M821.9688,30.1406 Q821.3906,30.4375 820.75,30.5859 Q820.1094,30.7344 819.4063,30.7344 Q816.9063,30.7344 815.5859,29.0859 Q814.2656,27.4375 814.2656,24.3125 Q814.2656,21.1875 815.5859,19.5313 Q816.9063,17.875 819.4063,17.875 Q820.1094,17.875 820.7578,18.0313 Q821.4063,18.1875 821.9688,18.4844 L821.9688,21.2031 Q821.3438,20.625 820.75,20.3516 Q820.1563,20.0781 819.5313,20.0781 Q818.1875,20.0781 817.5,21.1484 Q816.8125,22.2188 816.8125,24.3125 Q816.8125,26.4063 817.5,27.4766 Q818.1875,28.5469 819.5313,28.5469 Q820.1563,28.5469 820.75,28.2734 Q821.3438,28 821.9688,27.4219 L821.9688,30.1406 Z "/><text fill="#000000" font-family="sans-serif" font-size="12" lengthAdjust="spacingAndGlyphs" textLength="134" x="833.5" y="28.1543">\App\Parser\Scheduler</text><line style="stroke: #A80036; stroke-width: 1.5;" x1="805.5" x2="969.5" y1="40" y2="40"/><line style="stroke: #A80036; stroke-width: 1.5;" x1="805.5" x2="969.5" y1="48" y2="48"/><!--link \VDB\Spider\Downloader\DownloaderInterface to \VDB\Spider\Downloader\Downloader--><path d="M764.253,400.024 C763.23,413.579 762.139,428.038 761.26,439.678 " fill="none" id="\VDB\Spider\Downloader\DownloaderInterface-\VDB\Spider\Downloader\Downloader" style="stroke: #A80036; stroke-width: 1.0; stroke-dasharray: 7.0,7.0;"/><polygon fill="none" points="757.279,399.417,765.764,380,771.239,400.471,757.279,399.417" style="stroke: #A80036; stroke-width: 1.0;"/><!--link \VDB\Spider\Spider to \VDB\Spider\Discoverer\DiscovererSet--><path d="M693.449,273.684 C640.687,291.271 570.258,314.747 518.641,331.953 " fill="none" id="\VDB\Spider\Spider-\VDB\Spider\Discoverer\DiscovererSet" style="stroke: #A80036; stroke-width: 1.0;"/><polygon fill="#A80036" points="698.499,272,688.6959,271.0513,693.7556,273.5811,691.2258,278.6408,698.499,272" style="stroke: #A80036; stroke-width: 1.0;"/><!--link \VDB\Spider\Spider to \VDB\Spider\Downloader\DownloaderInterface--><path d="M767.5,277.131 C767.5,294.154 767.5,315.604 767.5,331.678 " fill="none" id="\VDB\Spider\Spider-\VDB\Spider\Downloader\DownloaderInterface" style="stroke: #A80036; stroke-width: 1.0;"/><polygon fill="#A80036" points="767.5,272,763.5,281,767.5,277,771.5,281,767.5,272" style="stroke: #A80036; stroke-width: 1.0;"/><!--link \VDB\Spider\Spider to \VDB\Spider\RequestHandler\RequestHandlerInterface--><path d="M846.443,271.677 C908.27,289.438 993.93,314.045 1056.12,331.91 " fill="none" id="\VDB\Spider\Spider-\VDB\Spider\RequestHandler\RequestHandlerInterface" style="stroke: #A80036; stroke-width: 1.0;"/><polygon fill="#A80036" points="841.286,270.196,848.8307,276.5267,846.0914,271.5773,851.0408,268.8381,841.286,270.196" style="stroke: #A80036; stroke-width: 1.0;"/><!--link \VDB\Spider\Downloader\Downloader to \VDB\Spider\PersistenceHandler\PersistenceHandlerInterface--><path d="M759.5,493.131 C759.5,510.154 759.5,531.604 759.5,547.678 " fill="none" id="\VDB\Spider\Downloader\Downloader-\VDB\Spider\PersistenceHandler\PersistenceHandlerInterface" style="stroke: #A80036; stroke-width: 1.0;"/><polygon fill="#A80036" points="759.5,488,755.5,497,759.5,493,763.5,497,759.5,488" style="stroke: #A80036; stroke-width: 1.0;"/><!--link \App\Parser\Spider\SpiderInterface to App\Parser\Spider\Spider--><path d="M689.295,69.338 C706.52,84.681 726.072,102.098 741.318,115.678 " fill="none" id="\App\Parser\Spider\SpiderInterface-App\Parser\Spider\Spider" style="stroke: #A80036; stroke-width: 1.0; stroke-dasharray: 7.0,7.0;"/><polygon fill="none" points="684.6,74.53,674.321,56,693.912,64.076,684.6,74.53" style="stroke: #A80036; stroke-width: 1.0;"/><!--link \App\Parser\Spider\Attributes\AttributeParserInterface to \App\Parser\Spider\Attributes\DetailPageParser--><path d="M498.67,818.719 C451.133,835.571 392.542,856.343 348.51,871.953 " fill="none" id="\App\Parser\Spider\Attributes\AttributeParserInterface-\App\Parser\Spider\Attributes\DetailPageParser" style="stroke: #A80036; stroke-width: 1.0; stroke-dasharray: 7.0,7.0;"/><polygon fill="none" points="496.432,812.086,517.621,812,501.11,825.281,496.432,812.086" style="stroke: #A80036; stroke-width: 1.0;"/><!--link \App\Parser\Spider\Attributes\AttributeParserInterface to \App\Parser\Spider\Attributes\TableParser--><path d="M595.744,831.54 C600.007,845.235 604.572,859.9 608.24,871.678 " fill="none" id="\App\Parser\Spider\Attributes\AttributeParserInterface-\App\Parser\Spider\Attributes\TableParser" style="stroke: #A80036; stroke-width: 1.0; stroke-dasharray: 7.0,7.0;"/><polygon fill="none" points="588.922,833.177,589.661,812,602.289,829.016,588.922,833.177" style="stroke: #A80036; stroke-width: 1.0;"/><!--link \VDB\Spider\PersistenceHandler\PersistenceHandlerInterface to \App\Parser\Spider\PersistenceHandler\DBPersistenceHandler--><path d="M759.5,616.024 C759.5,629.579 759.5,644.038 759.5,655.678 " fill="none" id="\VDB\Spider\PersistenceHandler\PersistenceHandlerInterface-\App\Parser\Spider\PersistenceHandler\DBPersistenceHandler" style="stroke: #A80036; stroke-width: 1.0; stroke-dasharray: 7.0,7.0;"/><polygon fill="none" points="752.5,616,759.5,596,766.5,616,752.5,616" style="stroke: #A80036; stroke-width: 1.0;"/><!--link \VDB\Spider\Filter\PreFetchFilterInterface to \App\Parser\Spider\Filter\Prefetch\UriFilter--><path d="M196.919,391.279 C220.76,407.173 248.468,425.645 269.793,439.862 " fill="none" id="\VDB\Spider\Filter\PreFetchFilterInterface-\App\Parser\Spider\Filter\Prefetch\UriFilter" style="stroke: #A80036; stroke-width: 1.0; stroke-dasharray: 7.0,7.0;"/><polygon fill="none" points="192.759,396.919,180.001,380,200.525,385.27,192.759,396.919" style="stroke: #A80036; stroke-width: 1.0;"/><!--link \VDB\Spider\RequestHandler\RequestHandlerInterface to \App\Parser\Spider\RequestHandler\GuzzleRequestWIthProxyHandler--><path d="M1139.75,400.024 C1140.77,413.579 1141.86,428.038 1142.74,439.678 " fill="none" id="\VDB\Spider\RequestHandler\RequestHandlerInterface-\App\Parser\Spider\RequestHandler\GuzzleRequestWIthProxyHandler" style="stroke: #A80036; stroke-width: 1.0; stroke-dasharray: 7.0,7.0;"/><polygon fill="none" points="1132.76,400.471,1138.24,380,1146.72,399.417,1132.76,400.471" style="stroke: #A80036; stroke-width: 1.0;"/><!--link App\Parser\Spider\Spider to \VDB\Spider\Spider--><path d="M767.5,169.131 C767.5,186.154 767.5,207.604 767.5,223.678 " fill="none" id="App\Parser\Spider\Spider-\VDB\Spider\Spider" style="stroke: #A80036; stroke-width: 1.0;"/><polygon fill="#A80036" points="767.5,164,763.5,173,767.5,169,771.5,173,767.5,164" style="stroke: #A80036; stroke-width: 1.0;"/><!--link \App\Parser\Spider\Filter\UriFilterInterface to \App\Parser\Spider\Filter\UriFilter--><path d="M937.5,832.024 C937.5,845.579 937.5,860.038 937.5,871.678 " fill="none" id="\App\Parser\Spider\Filter\UriFilterInterface-\App\Parser\Spider\Filter\UriFilter" style="stroke: #A80036; stroke-width: 1.0; stroke-dasharray: 7.0,7.0;"/><polygon fill="none" points="930.5,832,937.5,812,944.5,832,930.5,832" style="stroke: #A80036; stroke-width: 1.0;"/><!--link \App\Parser\Spider\PersistenceHandler\DBPersistenceHandler to \App\Parser\Spider\Filter\UriFilterInterface--><path d="M802.74,706.75 C832.008,724.179 870.347,747.01 898.645,763.862 " fill="none" id="\App\Parser\Spider\PersistenceHandler\DBPersistenceHandler-\App\Parser\Spider\Filter\UriFilterInterface" style="stroke: #A80036; stroke-width: 1.0;"/><polygon fill="#A80036" points="798.123,704,803.8085,712.0421,802.4188,706.5586,807.9023,705.1689,798.123,704" style="stroke: #A80036; stroke-width: 1.0;"/><!--link \App\Parser\Spider\PersistenceHandler\DBPersistenceHandler to \App\Parser\Spider\Attributes\AttributeParserInterface--><path d="M716.503,706.75 C687.399,724.179 649.276,747.01 621.137,763.862 " fill="none" id="\App\Parser\Spider\PersistenceHandler\DBPersistenceHandler-\App\Parser\Spider\Attributes\AttributeParserInterface" style="stroke: #A80036; stroke-width: 1.0;"/><polygon fill="#A80036" points="721.094,704,711.3175,705.1914,716.8041,706.5685,715.427,712.0552,721.094,704" style="stroke: #A80036; stroke-width: 1.0;"/><!--link \App\Parser\Spider\Attributes\DetailPageParser to \App\Parser\CarDefiner--><path d="M323.825,922.75 C351.12,940.1792 386.874,963.0099 413.265,979.8617 " fill="none" id="\App\Parser\Spider\Attributes\DetailPageParser-\App\Parser\CarDefiner" style="stroke: #A80036; stroke-width: 1.0;"/><polygon fill="#A80036" points="319.52,920,324.9521,928.2153,323.7339,922.6912,329.2581,921.473,319.52,920" style="stroke: #A80036; stroke-width: 1.0;"/><!--link \App\Parser\Spider\Attributes\TableParser to \App\Parser\CarDefiner--><path d="M575.175,922.75 C547.88,940.1792 512.126,963.0099 485.735,979.8617 " fill="none" id="\App\Parser\Spider\Attributes\TableParser-\App\Parser\CarDefiner" style="stroke: #A80036; stroke-width: 1.0;"/><polygon fill="#A80036" points="579.48,920,569.7419,921.473,575.2661,922.6912,574.0479,928.2153,579.48,920" style="stroke: #A80036; stroke-width: 1.0;"/><!--link \VDB\Spider\Discoverer\DiscovererSet to \App\Parser\Spider\Filter\Prefetch\UriFilter--><path d="M407.321,387.834 C384.595,404.447 357.022,424.605 336.151,439.862 " fill="none" id="\VDB\Spider\Discoverer\DiscovererSet-\App\Parser\Spider\Filter\Prefetch\UriFilter" style="stroke: #A80036; stroke-width: 1.0;"/><polygon fill="#FFFFFF" points="418.037,380,410.8326,380.3118,408.3496,387.082,415.5539,386.7701,418.037,380" style="stroke: #A80036; stroke-width: 1.0;"/><!--link \App\Parser\Scheduler to App\Parser\Spider\Spider--><path d="M857.629,59.386 C838.064,76.668 812.727,99.049 793.902,115.678 " fill="none" id="\App\Parser\Scheduler-App\Parser\Spider\Spider" style="stroke: #A80036; stroke-width: 1.0;"/><polygon fill="#A80036" points="861.462,56,852.0686,58.9605,857.7146,59.3102,857.3649,64.9562,861.462,56" style="stroke: #A80036; stroke-width: 1.0;"/><!--
@startuml
class \VDB\Spider\Downloader\Downloader implements \VDB\Spider\Downloader\DownloaderInterface
\VDB\Spider\Spider <- - \VDB\Spider\Discoverer\DiscovererSet
\VDB\Spider\Spider <- - \VDB\Spider\Downloader\DownloaderInterface
\VDB\Spider\Spider <- - \VDB\Spider\RequestHandler\RequestHandlerInterface
\VDB\Spider\Downloader\Downloader <- - \VDB\Spider\PersistenceHandler\PersistenceHandlerInterface
interface \VDB\Spider\PersistenceHandler\PersistenceHandlerInterface
interface \VDB\Spider\Filter\PreFetchFilterInterface

class App\Parser\Spider\Spider implements \App\Parser\Spider\SpiderInterface
class \App\Parser\Spider\Attributes\DetailPageParser implements \App\Parser\Spider\Attributes\AttributeParserInterface
class \App\Parser\Spider\Attributes\TableParser implements \App\Parser\Spider\Attributes\AttributeParserInterface
class \App\Parser\Spider\PersistenceHandler\DBPersistenceHandler implements \VDB\Spider\PersistenceHandler\PersistenceHandlerInterface
class \App\Parser\Spider\Filter\Prefetch\UriFilter implements \VDB\Spider\Filter\PreFetchFilterInterface
class \App\Parser\Spider\RequestHandler\GuzzleRequestWIthProxyHandler implements \VDB\Spider\RequestHandler\RequestHandlerInterface

App\Parser\Spider\Spider <- - \VDB\Spider\Spider

class \App\Parser\Spider\Filter\UriFilter implements \App\Parser\Spider\Filter\UriFilterInterface
\App\Parser\Spider\PersistenceHandler\DBPersistenceHandler <- - \App\Parser\Spider\Filter\UriFilterInterface

\App\Parser\Spider\PersistenceHandler\DBPersistenceHandler <- - \App\Parser\Spider\Attributes\AttributeParserInterface
\App\Parser\Spider\Attributes\DetailPageParser <- - \App\Parser\CarDefiner
\App\Parser\Spider\Attributes\TableParser <- - \App\Parser\CarDefiner

\VDB\Spider\Discoverer\DiscovererSet o- - \App\Parser\Spider\Filter\Prefetch\UriFilter

\App\Parser\Scheduler <- - App\Parser\Spider\Spider
@enduml

PlantUML version 1.2017.15(Mon Jul 03 19:45:34 MSK 2017)
(GPL source distribution)
Java Runtime: OpenJDK Runtime Environment
JVM: OpenJDK 64-Bit Server VM
Java Version: 1.8.0_112-release-736-b16
Operating System: Linux
OS Version: 4.10.0-33-generic
Default Encoding: UTF-8
Language: ru
Country: RU
--></g></svg>